<mxfile host="Electron" agent="Mozilla/5.0 (Macintosh; Intel Mac OS X 10_15_7) AppleWebKit/537.36 (KHTML, like Gecko) draw.io/26.0.4 Chrome/128.0.6613.186 Electron/32.2.5 Safari/537.36" version="26.0.4">
  <diagram name="Page-1" id="1uRZErZhbfkJ6PKA63Qw">
    <mxGraphModel dx="1306" dy="834" grid="1" gridSize="10" guides="1" tooltips="1" connect="1" arrows="1" fold="1" page="1" pageScale="1" pageWidth="827" pageHeight="1169" math="0" shadow="0">
      <root>
        <mxCell id="0" />
        <mxCell id="1" parent="0" />
        <mxCell id="kKa3A0P5XVH3Nz9TJv37-43" style="edgeStyle=orthogonalEdgeStyle;rounded=0;orthogonalLoop=1;jettySize=auto;html=1;entryX=0.483;entryY=0.444;entryDx=0;entryDy=0;entryPerimeter=0;endArrow=none;endFill=0;dashed=1;" edge="1" parent="1" source="kKa3A0P5XVH3Nz9TJv37-7" target="kKa3A0P5XVH3Nz9TJv37-38">
          <mxGeometry relative="1" as="geometry" />
        </mxCell>
        <mxCell id="kKa3A0P5XVH3Nz9TJv37-42" style="edgeStyle=orthogonalEdgeStyle;rounded=0;orthogonalLoop=1;jettySize=auto;html=1;entryX=0.483;entryY=0.444;entryDx=0;entryDy=0;entryPerimeter=0;dashed=1;endArrow=none;endFill=0;" edge="1" parent="1" source="kKa3A0P5XVH3Nz9TJv37-6" target="kKa3A0P5XVH3Nz9TJv37-37">
          <mxGeometry relative="1" as="geometry" />
        </mxCell>
        <mxCell id="kKa3A0P5XVH3Nz9TJv37-41" style="edgeStyle=orthogonalEdgeStyle;rounded=0;orthogonalLoop=1;jettySize=auto;html=1;entryX=0.511;entryY=0.472;entryDx=0;entryDy=0;entryPerimeter=0;endArrow=none;endFill=0;dashed=1;" edge="1" parent="1" source="kKa3A0P5XVH3Nz9TJv37-5" target="kKa3A0P5XVH3Nz9TJv37-36">
          <mxGeometry relative="1" as="geometry" />
        </mxCell>
        <mxCell id="kKa3A0P5XVH3Nz9TJv37-40" style="edgeStyle=orthogonalEdgeStyle;rounded=0;orthogonalLoop=1;jettySize=auto;html=1;entryX=0.5;entryY=0.467;entryDx=0;entryDy=0;entryPerimeter=0;endArrow=none;endFill=0;dashed=1;" edge="1" parent="1" source="kKa3A0P5XVH3Nz9TJv37-4" target="kKa3A0P5XVH3Nz9TJv37-35">
          <mxGeometry relative="1" as="geometry">
            <Array as="points">
              <mxPoint x="414" y="350" />
              <mxPoint x="414" y="350" />
            </Array>
          </mxGeometry>
        </mxCell>
        <mxCell id="kKa3A0P5XVH3Nz9TJv37-1" value="&lt;b&gt;&lt;font style=&quot;font-size: 16px;&quot;&gt;&lt;u&gt;Séquence : Création d&#39;une tâche&lt;/u&gt;&lt;/font&gt;&lt;/b&gt;" style="text;html=1;align=center;verticalAlign=middle;whiteSpace=wrap;rounded=0;" vertex="1" parent="1">
          <mxGeometry x="517" y="30" width="276" height="30" as="geometry" />
        </mxCell>
        <mxCell id="kKa3A0P5XVH3Nz9TJv37-3" value="HTTP Client" style="shape=umlActor;verticalLabelPosition=bottom;verticalAlign=top;html=1;" vertex="1" parent="1">
          <mxGeometry x="170" y="120" width="30" height="60" as="geometry" />
        </mxCell>
        <mxCell id="kKa3A0P5XVH3Nz9TJv37-4" value="API Gateway" style="shape=umlBoundary;whiteSpace=wrap;html=1;" vertex="1" parent="1">
          <mxGeometry x="360" y="120" width="100" height="80" as="geometry" />
        </mxCell>
        <mxCell id="kKa3A0P5XVH3Nz9TJv37-5" value="Task Service" style="ellipse;shape=umlControl;whiteSpace=wrap;html=1;" vertex="1" parent="1">
          <mxGeometry x="620" y="120" width="70" height="80" as="geometry" />
        </mxCell>
        <mxCell id="kKa3A0P5XVH3Nz9TJv37-6" value="User / Auth Service" style="ellipse;shape=umlControl;whiteSpace=wrap;html=1;" vertex="1" parent="1">
          <mxGeometry x="850" y="120" width="70" height="80" as="geometry" />
        </mxCell>
        <mxCell id="kKa3A0P5XVH3Nz9TJv37-7" value="Reminder Service" style="ellipse;shape=umlControl;whiteSpace=wrap;html=1;" vertex="1" parent="1">
          <mxGeometry x="1080" y="120" width="70" height="80" as="geometry" />
        </mxCell>
        <mxCell id="kKa3A0P5XVH3Nz9TJv37-14" style="edgeStyle=orthogonalEdgeStyle;rounded=0;orthogonalLoop=1;jettySize=auto;html=1;curved=0;" edge="1" parent="1">
          <mxGeometry relative="1" as="geometry">
            <mxPoint x="190" y="260" as="sourcePoint" />
            <mxPoint x="409" y="260" as="targetPoint" />
          </mxGeometry>
        </mxCell>
        <mxCell id="kKa3A0P5XVH3Nz9TJv37-15" value="HTTPRequest(POST, &#39;/tasks&#39;)" style="edgeLabel;html=1;align=center;verticalAlign=middle;resizable=0;points=[];" vertex="1" connectable="0" parent="kKa3A0P5XVH3Nz9TJv37-14">
          <mxGeometry x="0.0137" relative="1" as="geometry">
            <mxPoint y="-10" as="offset" />
          </mxGeometry>
        </mxCell>
        <mxCell id="kKa3A0P5XVH3Nz9TJv37-16" style="edgeStyle=orthogonalEdgeStyle;rounded=0;orthogonalLoop=1;jettySize=auto;html=1;curved=0;" edge="1" parent="1">
          <mxGeometry relative="1" as="geometry">
            <mxPoint x="419" y="280" as="sourcePoint" />
            <mxPoint x="880" y="280" as="targetPoint" />
          </mxGeometry>
        </mxCell>
        <mxCell id="kKa3A0P5XVH3Nz9TJv37-17" value="ApiCall(GET, &#39;/validate&#39;)" style="edgeLabel;html=1;align=center;verticalAlign=middle;resizable=0;points=[];" vertex="1" connectable="0" parent="kKa3A0P5XVH3Nz9TJv37-16">
          <mxGeometry x="-0.0022" y="-2" relative="1" as="geometry">
            <mxPoint x="1" y="-12" as="offset" />
          </mxGeometry>
        </mxCell>
        <mxCell id="kKa3A0P5XVH3Nz9TJv37-9" value="" style="html=1;points=[[0,0,0,0,5],[0,1,0,0,-5],[1,0,0,0,5],[1,1,0,0,-5]];perimeter=orthogonalPerimeter;outlineConnect=0;targetShapes=umlLifeline;portConstraint=eastwest;newEdgeStyle={&quot;curved&quot;:0,&quot;rounded&quot;:0};" vertex="1" parent="1">
          <mxGeometry x="409" y="240" width="10" height="120" as="geometry" />
        </mxCell>
        <mxCell id="kKa3A0P5XVH3Nz9TJv37-18" style="edgeStyle=orthogonalEdgeStyle;rounded=0;orthogonalLoop=1;jettySize=auto;html=1;curved=0;dashed=1;" edge="1" parent="1" source="kKa3A0P5XVH3Nz9TJv37-12" target="kKa3A0P5XVH3Nz9TJv37-9">
          <mxGeometry relative="1" as="geometry">
            <Array as="points">
              <mxPoint x="770" y="320" />
              <mxPoint x="770" y="320" />
            </Array>
          </mxGeometry>
        </mxCell>
        <mxCell id="kKa3A0P5XVH3Nz9TJv37-19" value="APIResponse(User)" style="edgeLabel;html=1;align=center;verticalAlign=middle;resizable=0;points=[];" vertex="1" connectable="0" parent="kKa3A0P5XVH3Nz9TJv37-18">
          <mxGeometry x="0.1323" y="-2" relative="1" as="geometry">
            <mxPoint x="31" y="-8" as="offset" />
          </mxGeometry>
        </mxCell>
        <mxCell id="kKa3A0P5XVH3Nz9TJv37-12" value="" style="html=1;points=[[0,0,0,0,5],[0,1,0,0,-5],[1,0,0,0,5],[1,1,0,0,-5]];perimeter=orthogonalPerimeter;outlineConnect=0;targetShapes=umlLifeline;portConstraint=eastwest;newEdgeStyle={&quot;curved&quot;:0,&quot;rounded&quot;:0};" vertex="1" parent="1">
          <mxGeometry x="880" y="240" width="10" height="120" as="geometry" />
        </mxCell>
        <mxCell id="kKa3A0P5XVH3Nz9TJv37-29" style="edgeStyle=orthogonalEdgeStyle;rounded=0;orthogonalLoop=1;jettySize=auto;html=1;curved=0;dashed=1;" edge="1" parent="1">
          <mxGeometry relative="1" as="geometry">
            <mxPoint x="1110" y="650" as="sourcePoint" />
            <mxPoint x="419" y="650" as="targetPoint" />
          </mxGeometry>
        </mxCell>
        <mxCell id="kKa3A0P5XVH3Nz9TJv37-30" value="APIResponse(Reminder)" style="edgeLabel;html=1;align=center;verticalAlign=middle;resizable=0;points=[];" vertex="1" connectable="0" parent="kKa3A0P5XVH3Nz9TJv37-29">
          <mxGeometry x="0.0072" y="-3" relative="1" as="geometry">
            <mxPoint y="-7" as="offset" />
          </mxGeometry>
        </mxCell>
        <mxCell id="kKa3A0P5XVH3Nz9TJv37-13" value="" style="html=1;points=[[0,0,0,0,5],[0,1,0,0,-5],[1,0,0,0,5],[1,1,0,0,-5]];perimeter=orthogonalPerimeter;outlineConnect=0;targetShapes=umlLifeline;portConstraint=eastwest;newEdgeStyle={&quot;curved&quot;:0,&quot;rounded&quot;:0};" vertex="1" parent="1">
          <mxGeometry x="1110" y="560" width="10" height="160" as="geometry" />
        </mxCell>
        <mxCell id="kKa3A0P5XVH3Nz9TJv37-24" style="edgeStyle=orthogonalEdgeStyle;rounded=0;orthogonalLoop=1;jettySize=auto;html=1;curved=0;dashed=1;" edge="1" parent="1">
          <mxGeometry relative="1" as="geometry">
            <mxPoint x="650" y="490" as="sourcePoint" />
            <mxPoint x="419" y="490" as="targetPoint" />
          </mxGeometry>
        </mxCell>
        <mxCell id="kKa3A0P5XVH3Nz9TJv37-25" value="ApiResponse(Task)" style="edgeLabel;html=1;align=center;verticalAlign=middle;resizable=0;points=[];" vertex="1" connectable="0" parent="kKa3A0P5XVH3Nz9TJv37-24">
          <mxGeometry x="0.0216" y="-3" relative="1" as="geometry">
            <mxPoint y="-7" as="offset" />
          </mxGeometry>
        </mxCell>
        <mxCell id="kKa3A0P5XVH3Nz9TJv37-20" value="" style="html=1;points=[[0,0,0,0,5],[0,1,0,0,-5],[1,0,0,0,5],[1,1,0,0,-5]];perimeter=orthogonalPerimeter;outlineConnect=0;targetShapes=umlLifeline;portConstraint=eastwest;newEdgeStyle={&quot;curved&quot;:0,&quot;rounded&quot;:0};" vertex="1" parent="1">
          <mxGeometry x="650" y="400" width="10" height="120" as="geometry" />
        </mxCell>
        <mxCell id="kKa3A0P5XVH3Nz9TJv37-22" style="edgeStyle=orthogonalEdgeStyle;rounded=0;orthogonalLoop=1;jettySize=auto;html=1;curved=0;" edge="1" parent="1">
          <mxGeometry relative="1" as="geometry">
            <mxPoint x="419" y="440" as="sourcePoint" />
            <mxPoint x="650" y="440" as="targetPoint" />
          </mxGeometry>
        </mxCell>
        <mxCell id="kKa3A0P5XVH3Nz9TJv37-23" value="ApiCall(POST, &#39;/tasks&#39;)" style="edgeLabel;html=1;align=center;verticalAlign=middle;resizable=0;points=[];" vertex="1" connectable="0" parent="kKa3A0P5XVH3Nz9TJv37-22">
          <mxGeometry x="-0.0736" y="1" relative="1" as="geometry">
            <mxPoint x="14" y="-9" as="offset" />
          </mxGeometry>
        </mxCell>
        <mxCell id="kKa3A0P5XVH3Nz9TJv37-21" value="" style="html=1;points=[[0,0,0,0,5],[0,1,0,0,-5],[1,0,0,0,5],[1,1,0,0,-5]];perimeter=orthogonalPerimeter;outlineConnect=0;targetShapes=umlLifeline;portConstraint=eastwest;newEdgeStyle={&quot;curved&quot;:0,&quot;rounded&quot;:0};" vertex="1" parent="1">
          <mxGeometry x="409" y="400" width="10" height="120" as="geometry" />
        </mxCell>
        <mxCell id="kKa3A0P5XVH3Nz9TJv37-27" style="edgeStyle=orthogonalEdgeStyle;rounded=0;orthogonalLoop=1;jettySize=auto;html=1;curved=0;" edge="1" parent="1">
          <mxGeometry relative="1" as="geometry">
            <mxPoint x="419" y="600" as="sourcePoint" />
            <mxPoint x="1110" y="600" as="targetPoint" />
          </mxGeometry>
        </mxCell>
        <mxCell id="kKa3A0P5XVH3Nz9TJv37-28" value="ApiCall(POST, &#39;/reminders&#39;)" style="edgeLabel;html=1;align=center;verticalAlign=middle;resizable=0;points=[];" vertex="1" connectable="0" parent="kKa3A0P5XVH3Nz9TJv37-27">
          <mxGeometry x="0.0014" y="5" relative="1" as="geometry">
            <mxPoint y="-5" as="offset" />
          </mxGeometry>
        </mxCell>
        <mxCell id="kKa3A0P5XVH3Nz9TJv37-32" style="edgeStyle=orthogonalEdgeStyle;rounded=0;orthogonalLoop=1;jettySize=auto;html=1;curved=0;dashed=1;" edge="1" parent="1" source="kKa3A0P5XVH3Nz9TJv37-26" target="kKa3A0P5XVH3Nz9TJv37-31">
          <mxGeometry relative="1" as="geometry">
            <Array as="points">
              <mxPoint x="300" y="700" />
              <mxPoint x="300" y="700" />
            </Array>
          </mxGeometry>
        </mxCell>
        <mxCell id="kKa3A0P5XVH3Nz9TJv37-33" value="HTTPResponse(201, &#39;Task created&#39;)" style="edgeLabel;html=1;align=center;verticalAlign=middle;resizable=0;points=[];" vertex="1" connectable="0" parent="kKa3A0P5XVH3Nz9TJv37-32">
          <mxGeometry x="0.0137" y="-1" relative="1" as="geometry">
            <mxPoint y="-9" as="offset" />
          </mxGeometry>
        </mxCell>
        <mxCell id="kKa3A0P5XVH3Nz9TJv37-26" value="" style="html=1;points=[[0,0,0,0,5],[0,1,0,0,-5],[1,0,0,0,5],[1,1,0,0,-5]];perimeter=orthogonalPerimeter;outlineConnect=0;targetShapes=umlLifeline;portConstraint=eastwest;newEdgeStyle={&quot;curved&quot;:0,&quot;rounded&quot;:0};" vertex="1" parent="1">
          <mxGeometry x="409" y="560" width="10" height="160" as="geometry" />
        </mxCell>
        <mxCell id="kKa3A0P5XVH3Nz9TJv37-34" value="" style="shape=umlDestroy;whiteSpace=wrap;html=1;strokeWidth=3;targetShapes=umlLifeline;" vertex="1" parent="1">
          <mxGeometry x="170" y="800" width="30" height="30" as="geometry" />
        </mxCell>
        <mxCell id="kKa3A0P5XVH3Nz9TJv37-35" value="" style="shape=umlDestroy;whiteSpace=wrap;html=1;strokeWidth=3;targetShapes=umlLifeline;" vertex="1" parent="1">
          <mxGeometry x="399" y="800" width="30" height="30" as="geometry" />
        </mxCell>
        <mxCell id="kKa3A0P5XVH3Nz9TJv37-36" value="" style="shape=umlDestroy;whiteSpace=wrap;html=1;strokeWidth=3;targetShapes=umlLifeline;" vertex="1" parent="1">
          <mxGeometry x="640" y="800" width="30" height="30" as="geometry" />
        </mxCell>
        <mxCell id="kKa3A0P5XVH3Nz9TJv37-37" value="" style="shape=umlDestroy;whiteSpace=wrap;html=1;strokeWidth=3;targetShapes=umlLifeline;" vertex="1" parent="1">
          <mxGeometry x="870" y="800" width="30" height="30" as="geometry" />
        </mxCell>
        <mxCell id="kKa3A0P5XVH3Nz9TJv37-38" value="" style="shape=umlDestroy;whiteSpace=wrap;html=1;strokeWidth=3;targetShapes=umlLifeline;" vertex="1" parent="1">
          <mxGeometry x="1100" y="800" width="30" height="30" as="geometry" />
        </mxCell>
        <mxCell id="kKa3A0P5XVH3Nz9TJv37-39" style="edgeStyle=orthogonalEdgeStyle;rounded=0;orthogonalLoop=1;jettySize=auto;html=1;entryX=0.5;entryY=0.6;entryDx=0;entryDy=0;entryPerimeter=0;endArrow=none;endFill=0;dashed=1;" edge="1" parent="1" source="kKa3A0P5XVH3Nz9TJv37-3" target="kKa3A0P5XVH3Nz9TJv37-34">
          <mxGeometry relative="1" as="geometry" />
        </mxCell>
        <mxCell id="kKa3A0P5XVH3Nz9TJv37-8" value="" style="html=1;points=[[0,0,0,0,5],[0,1,0,0,-5],[1,0,0,0,5],[1,1,0,0,-5]];perimeter=orthogonalPerimeter;outlineConnect=0;targetShapes=umlLifeline;portConstraint=eastwest;newEdgeStyle={&quot;curved&quot;:0,&quot;rounded&quot;:0};" vertex="1" parent="1">
          <mxGeometry x="180" y="240" width="10" height="80" as="geometry" />
        </mxCell>
        <mxCell id="kKa3A0P5XVH3Nz9TJv37-31" value="" style="html=1;points=[[0,0,0,0,5],[0,1,0,0,-5],[1,0,0,0,5],[1,1,0,0,-5]];perimeter=orthogonalPerimeter;outlineConnect=0;targetShapes=umlLifeline;portConstraint=eastwest;newEdgeStyle={&quot;curved&quot;:0,&quot;rounded&quot;:0};" vertex="1" parent="1">
          <mxGeometry x="180" y="560" width="10" height="160" as="geometry" />
        </mxCell>
      </root>
    </mxGraphModel>
  </diagram>
</mxfile>
